<?xml version="1.0" encoding="UTF-8"?>
<svg width="246px" height="313px" viewBox="0 0 246 313" version="1.1" xmlns="http://www.w3.org/2000/svg">
    <g stroke="none" stroke-width="1" fill="none" fill-rule="evenodd">
        <path d="M9.09494702e-13,0 L93.807215,66.6202892 L142.631446,66.6202892 C160.17239,66.6202892 174.392134,80.8400332 174.392134,98.3809764 C174.392134,115.92192 160.17239,130.141664 142.631446,130.141664 L93.807215,130.141664 L93.807215,130.141664 L67.9630306,130.141664 C30.4280852,130.141664 9.21566861e-13,160.569749 9.09494702e-13,198.104694 L9.09494702e-13,198.104694 L9.09494702e-13,198.104694 L9.09494702e-13,236.928626 L74.7981535,312.675587 L74.7981535,222.104694 C74.7981535,208.84986 85.5433196,198.104694 98.7981535,198.104694 L160.253434,198.104694 C207.449083,198.104694 245.708715,159.845062 245.708715,112.649413 L245.708715,99.0523471 C245.708715,44.3472463 201.361469,4.16169074e-15 146.656368,0 L9.09494702e-13,0 L9.09494702e-13,0 Z"
              id="Path-2" fill="#EF425A"></path>
    </g>
</svg>